<mxfile host="www.draw.io" modified="2020-05-31T02:15:57.255Z" agent="5.0 (Macintosh; Intel Mac OS X 10_14_4) AppleWebKit/537.36 (KHTML, like Gecko) Chrome/81.0.4044.138 Safari/537.36" etag="1BDq3tQvqQhjjPM3-_J3" version="13.1.1" type="github">
  <diagram id="1ydk9_n0L0ylP9l1Qbfi" name="第 1 页">
    <mxGraphModel dx="932" dy="542" grid="1" gridSize="10" guides="1" tooltips="1" connect="1" arrows="1" fold="1" page="1" pageScale="1" pageWidth="700" pageHeight="1000" math="0" shadow="0">
      <root>
        <mxCell id="0" />
        <mxCell id="1" parent="0" />
        <mxCell id="nhoYVN0kP7W7mQ3rnSdM-3" value="" style="rounded=0;whiteSpace=wrap;html=1;" parent="1" vertex="1">
          <mxGeometry x="230" y="60" width="400" height="650" as="geometry" />
        </mxCell>
        <mxCell id="nhoYVN0kP7W7mQ3rnSdM-4" value="生成一条报警信息" style="edgeStyle=orthogonalEdgeStyle;rounded=0;orthogonalLoop=1;jettySize=auto;html=1;exitX=1;exitY=0.5;exitDx=0;exitDy=0;entryX=0;entryY=0.5;entryDx=0;entryDy=0;" parent="1" source="nhoYVN0kP7W7mQ3rnSdM-2" target="nhoYVN0kP7W7mQ3rnSdM-5" edge="1">
          <mxGeometry relative="1" as="geometry">
            <mxPoint x="190" y="140" as="targetPoint" />
            <Array as="points">
              <mxPoint x="200" y="185" />
              <mxPoint x="200" y="105" />
            </Array>
          </mxGeometry>
        </mxCell>
        <mxCell id="nhoYVN0kP7W7mQ3rnSdM-2" value="第三方平台" style="rounded=1;whiteSpace=wrap;html=1;" parent="1" vertex="1">
          <mxGeometry x="20" y="160" width="120" height="50" as="geometry" />
        </mxCell>
        <mxCell id="nhoYVN0kP7W7mQ3rnSdM-8" style="edgeStyle=orthogonalEdgeStyle;rounded=0;orthogonalLoop=1;jettySize=auto;html=1;exitX=0.5;exitY=1;exitDx=0;exitDy=0;entryX=0.5;entryY=0;entryDx=0;entryDy=0;" parent="1" source="nhoYVN0kP7W7mQ3rnSdM-5" target="nhoYVN0kP7W7mQ3rnSdM-7" edge="1">
          <mxGeometry relative="1" as="geometry" />
        </mxCell>
        <mxCell id="nhoYVN0kP7W7mQ3rnSdM-26" style="edgeStyle=orthogonalEdgeStyle;rounded=0;orthogonalLoop=1;jettySize=auto;html=1;exitX=1;exitY=0.5;exitDx=0;exitDy=0;entryX=0;entryY=0.5;entryDx=0;entryDy=0;" parent="1" source="nhoYVN0kP7W7mQ3rnSdM-5" target="nhoYVN0kP7W7mQ3rnSdM-25" edge="1">
          <mxGeometry relative="1" as="geometry" />
        </mxCell>
        <mxCell id="nhoYVN0kP7W7mQ3rnSdM-5" value="报警转换" style="rounded=1;whiteSpace=wrap;html=1;" parent="1" vertex="1">
          <mxGeometry x="270" y="80" width="120" height="50" as="geometry" />
        </mxCell>
        <mxCell id="nhoYVN0kP7W7mQ3rnSdM-12" style="edgeStyle=orthogonalEdgeStyle;rounded=0;orthogonalLoop=1;jettySize=auto;html=1;exitX=1;exitY=0.5;exitDx=0;exitDy=0;entryX=0;entryY=0.5;entryDx=0;entryDy=0;" parent="1" source="nhoYVN0kP7W7mQ3rnSdM-7" target="nhoYVN0kP7W7mQ3rnSdM-11" edge="1">
          <mxGeometry relative="1" as="geometry" />
        </mxCell>
        <mxCell id="nhoYVN0kP7W7mQ3rnSdM-13" value="将任务推送给前端" style="edgeLabel;html=1;align=center;verticalAlign=middle;resizable=0;points=[];" parent="nhoYVN0kP7W7mQ3rnSdM-12" vertex="1" connectable="0">
          <mxGeometry x="-0.0667" y="3" relative="1" as="geometry">
            <mxPoint as="offset" />
          </mxGeometry>
        </mxCell>
        <mxCell id="nhoYVN0kP7W7mQ3rnSdM-7" value="生成巡检任务" style="rounded=1;whiteSpace=wrap;html=1;" parent="1" vertex="1">
          <mxGeometry x="270" y="190" width="120" height="50" as="geometry" />
        </mxCell>
        <mxCell id="nhoYVN0kP7W7mQ3rnSdM-15" style="edgeStyle=orthogonalEdgeStyle;rounded=0;orthogonalLoop=1;jettySize=auto;html=1;exitX=0.5;exitY=1;exitDx=0;exitDy=0;entryX=1;entryY=0.5;entryDx=0;entryDy=0;" parent="1" source="nhoYVN0kP7W7mQ3rnSdM-11" target="nhoYVN0kP7W7mQ3rnSdM-14" edge="1">
          <mxGeometry relative="1" as="geometry" />
        </mxCell>
        <mxCell id="nhoYVN0kP7W7mQ3rnSdM-16" value="将需要巡检的任务发送给调度模块" style="edgeLabel;html=1;align=center;verticalAlign=middle;resizable=0;points=[];" parent="nhoYVN0kP7W7mQ3rnSdM-15" vertex="1" connectable="0">
          <mxGeometry x="0.1724" relative="1" as="geometry">
            <mxPoint as="offset" />
          </mxGeometry>
        </mxCell>
        <mxCell id="nhoYVN0kP7W7mQ3rnSdM-11" value="web端" style="rounded=1;whiteSpace=wrap;html=1;" parent="1" vertex="1">
          <mxGeometry x="690" y="185" width="120" height="60" as="geometry" />
        </mxCell>
        <mxCell id="nhoYVN0kP7W7mQ3rnSdM-19" style="edgeStyle=orthogonalEdgeStyle;rounded=0;orthogonalLoop=1;jettySize=auto;html=1;exitX=0.5;exitY=1;exitDx=0;exitDy=0;entryX=0.5;entryY=0;entryDx=0;entryDy=0;" parent="1" source="nhoYVN0kP7W7mQ3rnSdM-14" target="nhoYVN0kP7W7mQ3rnSdM-18" edge="1">
          <mxGeometry relative="1" as="geometry" />
        </mxCell>
        <mxCell id="nhoYVN0kP7W7mQ3rnSdM-14" value="任务调度模块" style="rounded=1;whiteSpace=wrap;html=1;" parent="1" vertex="1">
          <mxGeometry x="270" y="300" width="120" height="50" as="geometry" />
        </mxCell>
        <mxCell id="nhoYVN0kP7W7mQ3rnSdM-22" style="edgeStyle=orthogonalEdgeStyle;rounded=0;orthogonalLoop=1;jettySize=auto;html=1;exitX=0.5;exitY=1;exitDx=0;exitDy=0;entryX=0.5;entryY=0;entryDx=0;entryDy=0;" parent="1" source="nhoYVN0kP7W7mQ3rnSdM-18" target="nhoYVN0kP7W7mQ3rnSdM-21" edge="1">
          <mxGeometry relative="1" as="geometry" />
        </mxCell>
        <mxCell id="nhoYVN0kP7W7mQ3rnSdM-18" value="生成任务执行记录" style="rounded=1;whiteSpace=wrap;html=1;" parent="1" vertex="1">
          <mxGeometry x="270" y="400" width="120" height="50" as="geometry" />
        </mxCell>
        <mxCell id="nhoYVN0kP7W7mQ3rnSdM-24" style="edgeStyle=orthogonalEdgeStyle;rounded=0;orthogonalLoop=1;jettySize=auto;html=1;exitX=0.5;exitY=1;exitDx=0;exitDy=0;" parent="1" source="nhoYVN0kP7W7mQ3rnSdM-21" target="nhoYVN0kP7W7mQ3rnSdM-23" edge="1">
          <mxGeometry relative="1" as="geometry" />
        </mxCell>
        <mxCell id="nhoYVN0kP7W7mQ3rnSdM-21" value="机器人进行巡检" style="rounded=1;whiteSpace=wrap;html=1;" parent="1" vertex="1">
          <mxGeometry x="270" y="510" width="120" height="50" as="geometry" />
        </mxCell>
        <mxCell id="nhoYVN0kP7W7mQ3rnSdM-23" value="上报巡检结果&lt;br&gt;入库" style="rounded=1;whiteSpace=wrap;html=1;" parent="1" vertex="1">
          <mxGeometry x="270" y="620" width="120" height="50" as="geometry" />
        </mxCell>
        <mxCell id="nhoYVN0kP7W7mQ3rnSdM-25" value="生成设备报警记录&lt;br&gt;入库" style="rounded=1;whiteSpace=wrap;html=1;" parent="1" vertex="1">
          <mxGeometry x="480" y="80" width="120" height="50" as="geometry" />
        </mxCell>
        <mxCell id="nhoYVN0kP7W7mQ3rnSdM-28" style="edgeStyle=orthogonalEdgeStyle;rounded=0;orthogonalLoop=1;jettySize=auto;html=1;exitX=1;exitY=0.5;exitDx=0;exitDy=0;entryX=0;entryY=0.5;entryDx=0;entryDy=0;" parent="1" source="nhoYVN0kP7W7mQ3rnSdM-27" target="nhoYVN0kP7W7mQ3rnSdM-7" edge="1">
          <mxGeometry relative="1" as="geometry" />
        </mxCell>
        <mxCell id="nhoYVN0kP7W7mQ3rnSdM-27" value="手动报警确认" style="rounded=1;whiteSpace=wrap;html=1;" parent="1" vertex="1">
          <mxGeometry x="20" y="260" width="120" height="50" as="geometry" />
        </mxCell>
        <mxCell id="nhoYVN0kP7W7mQ3rnSdM-31" value="前端收到应急任务之后进行弹框展示" style="shape=document;whiteSpace=wrap;html=1;boundedLbl=1;" parent="1" vertex="1">
          <mxGeometry x="690" y="127" width="120" height="80" as="geometry" />
        </mxCell>
      </root>
    </mxGraphModel>
  </diagram>
</mxfile>
